<svg xmlns="http://www.w3.org/2000/svg" width="228" height="93" viewBox="0 0 228 93" fill="none"><g clip-path="url(#clip0_99_6)"><path d="M21.2962 20.3855C29.8041 16.0334 38.6347 13.8896 47.7612 13.8896C47.8258 13.8896 47.8904 13.8896 47.9549 13.8896C48.0195 13.8896 48.084 13.8896 48.1486 13.8896C57.2751 13.8896 66.1057 16.0334 74.6136 20.3855L75.1354 20.9369C78.6079 29.1193 80.5903 37.4658 80.6872 45.9414C80.6872 46.1028 80.6872 46.2319 80.6872 46.396V46.9796C80.6549 55.1298 78.9011 63.4439 75.1354 71.8872L74.549 72.4387C65.6861 76.3685 56.8205 78.3482 47.9549 78.4477C39.0893 78.3482 30.2237 76.3685 21.3608 72.4387L20.7744 71.8872C17.0087 63.4439 15.2549 55.1298 15.2227 46.9796V46.396C15.2227 46.2319 15.2227 46.1028 15.2227 45.9414C15.3195 37.4658 17.3019 29.1193 20.7744 20.9369L21.2962 20.3855Z" fill="#003399"></path><path fill-rule="evenodd" clip-rule="evenodd" d="M48.5386 64.1917C48.084 57.989 48.3772 51.5254 46.5266 45.6159C44.8052 40.0964 38.277 36.9466 38.1479 30.8731C38.0188 26.1309 41.6231 20.6437 48.3772 20.6437C54.709 20.6114 58.6388 25.2218 59.0934 30.3539C59.6448 36.2957 52.4361 40.2901 50.5533 45.9414C48.6032 51.7217 49.1573 58.1181 48.5386 64.1917Z" fill="white"></path><path fill-rule="evenodd" clip-rule="evenodd" d="M51.0403 62.696C50.7794 57.3056 50.7794 52.1439 52.2749 47.5631C53.9291 42.3691 57.3721 37.9847 62.6333 36.5565C66.2377 35.5827 71.5285 39.8031 70.6866 44.1229C69.9711 47.5981 66.4959 51.6893 60.9119 52.1439C58.3135 52.3698 57.2107 54.449 55.586 55.6514C62.8593 54.9359 67.5691 52.0793 70.848 49.091C71.3349 51.6221 71.6603 55.8773 69.6779 57.3379C65.7831 60.0976 62.1788 57.857 57.598 59.1562C55.0346 59.904 53.4423 61.5286 51.0403 62.696Z" fill="white"></path><path fill-rule="evenodd" clip-rule="evenodd" d="M46.0719 62.696C46.3624 57.3056 46.3302 52.1439 44.8696 47.5631C43.2127 42.3691 39.7724 37.9847 34.5111 36.5565C30.9068 35.5827 25.581 39.8031 26.4579 44.1229C27.1734 47.5981 30.6459 51.6893 36.2326 52.1439C38.7987 52.3698 39.9338 54.449 41.5584 55.6514C34.2502 54.9359 29.5753 52.0793 26.2965 49.091C25.8096 51.6221 25.4842 55.8773 27.4639 57.3379C31.3614 60.0976 34.9657 57.857 39.5438 59.1562C42.1098 59.904 43.6672 61.5286 46.0719 62.696Z" fill="white"></path><path fill-rule="evenodd" clip-rule="evenodd" d="M63.3783 70.717V69.8401L64.0292 69.6787L63.3783 68.705V67.0804L66.3021 71.1393L65.2639 71.4002L64.5484 70.3915L63.3783 70.717ZM63.3783 67.0804V68.705L62.9237 68.0541L62.7301 70.0042L63.3783 69.8401V70.717L62.6332 70.8811L62.5014 72.0807L61.4632 72.3416L62.1464 67.0481L63.1846 66.7872L63.3783 67.0804ZM53.7031 73.544V72.6994H53.929C54.2868 72.6671 54.5154 72.6348 54.6122 72.5999C54.7413 72.5676 54.8705 72.4707 54.9377 72.3739C55.0345 72.2448 55.0668 72.113 55.0668 71.9516C55.0345 71.7902 55.0023 71.6584 54.9027 71.5616C54.8382 71.4648 54.7091 71.4002 54.58 71.3679C54.4508 71.3356 54.1577 71.3356 53.7031 71.3679V70.5233C53.9613 70.5233 54.1254 70.491 54.1899 70.491C54.3513 70.4588 54.4831 70.3592 54.58 70.2624C54.6768 70.1656 54.7091 70.0365 54.6768 69.8724C54.6768 69.711 54.6122 69.5819 54.5154 69.5146C54.4508 69.4178 54.319 69.3533 54.1254 69.3533C54.0608 69.3533 53.929 69.3533 53.7031 69.3855V68.5409C54.0608 68.5087 54.319 68.5087 54.4831 68.5409C54.6768 68.5409 54.8705 68.6082 55.0345 68.705C55.1959 68.7696 55.325 68.8987 55.4568 69.0601C55.5537 69.2241 55.6182 69.4178 55.6505 69.6464C55.6828 69.8724 55.6182 70.101 55.5214 70.2947C55.4246 70.491 55.2605 70.6524 55.0345 70.7815C55.3573 70.8488 55.6182 70.9779 55.7796 71.1716C55.976 71.3679 56.0728 71.5939 56.1051 71.8871C56.1051 72.113 56.0728 72.3416 56.0082 72.5676C55.9114 72.7962 55.7796 72.9576 55.6182 73.1217C55.4246 73.2508 55.2282 73.3476 54.97 73.4122C54.8059 73.4444 54.3836 73.4767 53.7676 73.544H53.7031ZM59.8385 70.8138L60.8472 70.9456C60.7826 71.497 60.6186 71.9516 60.3281 72.2771C60.0349 72.5676 59.6126 72.7962 59.0935 72.893C58.4425 72.9899 57.8588 72.8608 57.372 72.503C56.8528 72.113 56.5597 71.5616 56.3983 70.7815C56.2665 69.9719 56.366 69.2887 56.721 68.7696C57.0465 68.2504 57.5656 67.925 58.2489 67.7959C58.8648 67.6963 59.3517 67.7959 59.8062 68.0864C60.0672 68.2504 60.2931 68.5087 60.4572 68.8987L59.5157 69.2887C59.4189 69.0601 59.2548 68.8664 59.0612 68.7696C58.8325 68.6405 58.6066 68.6082 58.3457 68.6405C57.9879 68.705 57.7297 68.8987 57.5334 69.1919C57.3397 69.5146 57.3074 69.9396 57.4043 70.5233C57.5334 71.1393 57.7297 71.5616 57.9879 71.7902C58.2489 72.0162 58.5743 72.113 58.9294 72.0484C59.1903 71.9839 59.3866 71.8548 59.548 71.6584C59.7094 71.4648 59.8062 71.1716 59.8385 70.8138ZM53.7031 68.5409V69.3855C53.574 69.3855 53.4422 69.4178 53.2808 69.4178L52.6971 69.4851L52.7939 70.6202L53.4744 70.5556C53.539 70.5556 53.6385 70.5556 53.7031 70.5233V71.3679C53.7031 71.3679 53.7031 71.3679 53.6708 71.3679L52.8908 71.4325L52.9876 72.7639L53.7031 72.6994V73.544L52.0784 73.7054L51.6239 68.7373L53.6062 68.5759C53.6385 68.5409 53.6708 68.5409 53.7031 68.5409ZM47.4358 71.8225V70.9779C47.6618 70.9779 47.7936 70.9456 47.8904 70.9133C48.0195 70.8811 48.1164 70.7815 48.2159 70.6847C48.2804 70.5556 48.3127 70.4265 48.3127 70.2947C48.345 70.101 48.2804 69.9719 48.1809 69.8401C48.0841 69.711 47.955 69.6464 47.7936 69.6142C47.6941 69.6142 47.5972 69.5819 47.4358 69.5819V68.7373C47.9227 68.7373 48.2159 68.7696 48.3773 68.8341C48.6705 68.8987 48.8964 69.0601 49.0928 69.321C49.2864 69.5819 49.3833 69.9047 49.351 70.2947C49.351 70.5879 49.2864 70.8488 49.1896 71.0747C49.0578 71.2684 48.9287 71.4325 48.7673 71.5616C48.5709 71.6584 48.4095 71.723 48.2159 71.7902C48.0195 71.8225 47.7613 71.8225 47.4358 71.8225ZM47.4358 68.7373V69.5819C47.339 69.5819 47.2072 69.5819 47.0458 69.5819L46.559 69.5496V70.9779H47.0781C47.2072 70.9779 47.339 70.9779 47.4358 70.9779V71.8225C47.3713 71.8225 47.2718 71.8225 47.1749 71.8225H46.5267L46.4944 73.7054L45.4857 73.6731L45.5852 68.705L47.1749 68.7373C47.2718 68.7373 47.3713 68.7373 47.4358 68.7373ZM38.0511 71.3356V69.8078C38.3443 69.8724 38.538 69.8724 38.6348 69.8724C38.7666 69.8401 38.8634 69.8078 38.9603 69.711C39.0248 69.6142 39.0894 69.5146 39.1216 69.3533C39.1539 69.1919 39.1216 69.0601 39.0571 68.931C38.9925 68.8018 38.8634 68.7373 38.6993 68.6727C38.6348 68.6405 38.4088 68.6082 38.0511 68.5409V67.6963L38.4734 67.7636C38.9925 67.8604 39.3503 67.9572 39.5762 68.0864C39.8049 68.2182 39.9662 68.4118 40.0631 68.6727C40.1626 68.8987 40.1949 69.1919 40.1303 69.4851C40.0631 69.8401 39.9017 70.1333 39.6435 70.327C39.4148 70.5233 39.0571 70.6202 38.6025 70.6202C38.7989 70.7815 38.9603 70.9456 39.0571 71.107C39.1862 71.3034 39.318 71.5939 39.4794 72.0162L39.9017 73.0894L38.7316 72.8608L38.2125 71.6584C38.1479 71.5616 38.1157 71.4325 38.0511 71.3356ZM40.9077 68.2504L41.8814 68.3473L41.6554 71.0425C41.6232 71.4648 41.6232 71.7579 41.6232 71.8548C41.6554 72.0807 41.7523 72.2448 41.8814 72.3739C42.0455 72.5353 42.2391 72.5999 42.5323 72.6348C42.8255 72.6671 43.0514 72.5999 43.1806 72.503C43.3446 72.4062 43.4415 72.2771 43.506 72.113C43.5383 71.9516 43.5706 71.6584 43.6029 71.2684L43.8315 68.5087L44.8375 68.6082L44.6115 71.2038C44.5793 71.8225 44.512 72.2448 44.4152 72.4707C44.3506 72.6994 44.2215 72.9253 44.0897 73.0544C43.9283 73.2185 43.7024 73.3476 43.4415 73.4122C43.2128 73.5117 42.8901 73.5117 42.5 73.4767C42.0132 73.4445 41.6554 73.3476 41.4268 73.2185C41.2009 73.0894 41.0045 72.9253 40.8754 72.7639C40.7463 72.5676 40.6817 72.3739 40.6495 72.1802C40.6172 71.8871 40.6172 71.4648 40.6495 70.9133L40.9077 68.2504ZM33.0185 69.711L33.2121 68.8987L35.3236 69.4501L34.8045 71.3679C34.5436 71.5293 34.2181 71.6261 33.7635 71.6584C33.3412 71.6907 32.9539 71.6584 32.5639 71.5616C32.0421 71.4325 31.6225 71.2038 31.3293 70.9133C31.0038 70.5879 30.8101 70.1979 30.7133 69.7756C30.6461 69.321 30.6461 68.8664 30.7779 68.4118C30.907 67.925 31.1329 67.5027 31.4584 67.1449C31.7516 66.8221 32.1416 66.6258 32.5962 66.529C32.9539 66.4321 33.3735 66.4644 33.8308 66.5935C34.4145 66.7549 34.8691 66.9835 35.1273 67.3413C35.3882 67.6641 35.5173 68.0864 35.485 68.5409L34.479 68.4764C34.479 68.2182 34.4145 67.9895 34.2504 67.7959C34.089 67.6318 33.8953 67.4704 33.6022 67.4058C33.1799 67.309 32.8221 67.3413 32.4966 67.5349C32.1739 67.7313 31.9452 68.1186 31.7839 68.6405C31.6225 69.2241 31.6547 69.6787 31.8161 70.0365C32.0098 70.3915 32.303 70.6202 32.693 70.717C32.9189 70.7815 33.1153 70.7815 33.3412 70.7815C33.5699 70.7493 33.7635 70.6847 33.9599 70.6202L34.1213 70.0042L33.0185 69.711ZM38.0511 67.6963L36.3619 67.4058L35.5173 72.3094L36.491 72.4707L36.8488 70.4265L37.0774 70.4588C37.3033 70.491 37.4674 70.5556 37.5642 70.5879C37.6611 70.6524 37.7256 70.7493 37.8225 70.8488C37.8547 70.9456 37.9543 71.107 38.0511 71.3356V69.8078C37.9543 69.8078 37.8547 69.7756 37.7256 69.7756L37.0128 69.6464L37.2065 68.4118L37.9865 68.5409C38.0188 68.5409 38.0511 68.5409 38.0511 68.5409V67.6963Z" fill="white"></path><path fill-rule="evenodd" clip-rule="evenodd" d="M192.814 61.6254V52.4666H196.841V36.36L192.814 44.4133V24.3124H208.628L212.654 70.6201H196.841V61.6254H192.814ZM192.814 24.3124V44.4133L188.788 52.4666H192.814V61.6254H185.216L182.098 70.1332H172.291V59.5462L183.233 35.9377H180.993L187.228 24.3124H192.814ZM172.291 39.7384L177.195 28.1131L172.291 25.3856V39.7384ZM133.292 35.2895C133.52 33.958 133.52 32.6589 133.292 31.4242V35.2895ZM172.291 25.3856V39.7384L171.643 41.2958C161.965 34.3803 147.677 40.6799 146.864 47.9854C146.055 55.6164 151.867 61.7868 166.707 57.1764L161.607 70.8138C142.028 72.9898 134.429 65.2297 133.292 56.1705V51.0383C133.585 48.6686 134.201 46.3634 135.045 44.2197C144.691 20.2535 160.34 25.6439 166.285 25.1893L167.162 22.5264L172.291 25.3856ZM172.291 59.5462L167.388 70.1332H172.291V59.5462ZM115.692 69.8401C126.18 67.7635 136.474 55.1618 126.148 45.1288C130.174 42.985 132.676 39.1225 133.292 35.2895V31.4242C132.579 27.4299 129.494 24.1833 123.681 24.0865L115.692 23.9224V32.8203H119.003C122.543 32.8203 122.089 41.979 117.672 41.979H115.692V48.9941C120.467 49.9032 118.777 56.5255 115.692 58.5725V69.8401ZM133.292 56.1705V51.0383C133.098 52.7598 133.098 54.4813 133.292 56.1705ZM101.859 23.6319L95.3977 36.1664L98.2865 35.9377L90.4941 70.1332H112.803C113.777 70.1332 114.719 70.0364 115.692 69.8401V58.5725C115.141 58.9625 114.522 59.1884 113.906 59.1884H105.885L108.548 48.8945H114.554C114.977 48.8945 115.367 48.9268 115.692 48.9941V41.979H110.106L112.346 32.8203H115.692V23.9224L101.859 23.6319Z" fill="#003399"></path></g><defs><clipPath id="clip0_99_6"><rect width="197.44" height="64.558" fill="white" transform="translate(15.2188 13.8896)"></rect></clipPath></defs></svg>