<svg xmlns="http://www.w3.org/2000/svg" width="227" height="93" viewBox="0 0 227 93" fill="none"><g clip-path="url(#clip0_99_2)"><path d="M15.0118 56.9306C15.0118 54.0748 14.9619 51.684 14.8076 49.545H20.2084L20.4648 53.2151H20.6145C21.8371 51.278 24.0781 48.9825 28.2564 48.9825C31.5182 48.9825 34.0632 50.8198 35.1338 53.569H35.2382C36.1047 52.1944 37.1209 51.1737 38.2913 50.4637C39.6682 49.4929 41.2514 48.9825 43.2861 48.9825C47.4144 48.9825 51.5881 51.7838 51.5881 59.7365V74.3534H45.475V60.6483C45.475 56.5246 44.0482 54.0748 41.0427 54.0748C38.9037 54.0748 37.3227 55.6082 36.6627 57.3911C36.479 58.0715 36.3762 58.7712 36.3564 59.4756V74.3557H30.2434V59.9837C30.2434 56.5268 28.8688 54.0771 25.9631 54.0771C23.6245 54.0771 22.0458 55.9144 21.4787 57.6428C21.2269 58.2553 21.1226 58.9721 21.1226 59.6798V74.3557H15.0118V56.9306ZM75.4074 68.3968C75.4074 70.6357 75.5095 72.8246 75.7613 74.3557H70.1064L69.7004 71.6065H69.5462C68.0173 73.5436 65.4179 74.9137 62.215 74.9137C57.2202 74.9137 54.4189 71.3003 54.4189 67.5281C54.4189 61.2562 59.9671 58.1033 69.1424 58.1532V57.7472C69.1424 56.114 68.4778 53.4147 64.0954 53.4147C61.648 53.4147 59.1029 54.1814 57.4221 55.2475L56.1995 51.1714C58.0346 50.0486 61.2442 48.9802 65.1638 48.9802C73.1142 48.9802 75.4097 54.0294 75.4097 59.4235L75.4074 68.3968ZM69.2921 62.2339C64.8576 62.1295 60.6318 63.0981 60.6318 66.868C60.6318 69.3132 62.215 70.436 64.1998 70.436C66.6926 70.436 68.53 68.8006 69.0902 67.02C69.2274 66.5748 69.2963 66.1113 69.2944 65.6454L69.2921 62.2339ZM79.7354 56.9306C79.7354 54.0748 79.6832 51.684 79.5357 49.545H85.0318L85.3358 53.2696H85.49C86.5584 51.3302 89.2599 48.9825 93.386 48.9825C97.7184 48.9825 102.198 51.7838 102.198 59.6344V74.3534H95.9333V60.3467C95.9333 56.7809 94.6063 54.0725 91.1948 54.0725C88.7019 54.0725 86.9644 55.8577 86.3043 57.7449C86.1002 58.3029 86.0503 59.0696 86.0503 59.7773V74.3511H79.7331L79.7354 56.9306ZM129.368 39.5781V67.3761C129.368 69.9234 129.472 72.6794 129.572 74.3557H123.972L123.715 70.436H123.611C122.137 73.1852 119.127 74.9159 115.513 74.9159C109.602 74.9159 104.918 69.8735 104.918 62.2361C104.864 53.9296 110.058 48.9848 116.024 48.9848C119.435 48.9848 121.88 50.4115 123.001 52.2534H123.107V39.5804H129.37L129.368 39.5781ZM123.105 59.8862C123.105 59.3804 123.055 58.7679 122.951 58.2553C122.391 55.8146 120.408 53.8253 117.552 53.8253C113.528 53.8253 111.283 57.3933 111.283 62.0275C111.283 66.5573 113.526 69.8712 117.503 69.8712C120.045 69.8712 122.289 68.136 122.899 65.4367C123.053 64.8787 123.107 64.264 123.107 63.6039L123.105 59.8862ZM133.8 74.3557V49.545H140.122V74.3557H133.8ZM144.55 57.5453C144.55 54.1837 144.502 51.7861 144.35 49.5473H149.801L150 54.2812H150.207C151.429 50.7676 154.331 49.5473 156.987 49.5473C157.597 49.5473 157.951 49.443 158.459 49.5473V55.0524C157.858 54.9194 157.244 54.851 156.628 54.8483C153.616 54.8483 151.579 56.7854 151.021 59.5822C150.898 60.2224 150.83 60.8721 150.819 61.5239V74.3579H144.55V57.5453ZM161.367 74.3557V49.545H167.68V74.3557H161.367Z" fill="#0D2B5B"></path><path d="M207.003 23.3058C203.875 19.7377 200.55 21.3528 197.907 22.6661C196.796 23.215 188.773 27.763 188.773 27.763C184.377 29.5753 180.954 27.5974 179.611 25.9325C179.483 25.7746 179.367 25.607 179.264 25.4312L178.951 24.889C178.422 23.974 177.834 23.0943 177.191 22.2556C176.801 21.7471 176.378 21.2645 175.925 20.8106C172.918 17.7734 168.111 15.648 160.077 19.5086C156.273 21.7134 143.881 28.7928 143.881 28.7928C139.224 30.7095 135.663 28.3754 134.506 26.6629C134.454 26.5987 134.409 26.5296 134.37 26.4564L134.218 26.1979L133.433 24.914C133.079 24.3516 132.699 23.8059 132.295 23.2786C131.9 22.7734 131.477 22.2917 131.027 21.8359C128.039 18.8168 123.258 16.696 115.294 20.484C110.478 23.2332 99.2774 29.6366 99.2774 29.6366L99.2728 29.6411L91.0752 34.3252L95.3169 39.5332C97.1021 41.2344 100.457 44.0244 105.647 41.6722C105.647 41.6722 119.971 33.377 120.028 33.3521C132.274 26.6311 138.317 33.0526 140.989 37.3329C141.082 37.4668 141.157 37.6119 141.241 37.7412L141.245 37.748C141.279 37.8002 141.3 37.8478 141.329 37.8977L141.631 38.3922C142.933 40.3656 144.986 41.6404 147.433 41.5814C148.783 41.5542 149.699 41.1142 151.033 40.3724L164.892 32.3336L164.922 32.32C177.323 25.5174 183.467 32.3585 186.092 36.6388C186.296 37.0086 186.527 37.3624 186.766 37.6913C188.065 39.4538 189.857 40.6083 192.135 40.5516C193.639 40.5221 195.324 39.6194 195.576 39.4538L212.191 29.8634C212.195 29.868 210.499 27.3025 207.003 23.3058Z" fill="#FDD213"></path></g><defs><clipPath id="clip0_99_2"><rect width="197.44" height="57.4945" fill="white" transform="translate(14.7803 17.4219)"></rect></clipPath></defs></svg>